# Blender v2.78 (sub 0) OBJ File: 'test.blend'
# www.blender.org
v 2.000000 0.000000 -3.000000
v 2.500000 0.000000 3.000000
v -2.500000 0.000000 2.999999
v -1.999999 0.000000 -3.000001
v 2.000001 2.000000 -2.999999
v 2.499999 2.500000 3.000002
v -2.500001 2.500000 2.999999
v -2.000000 2.000000 -3.000000
v 1.500000 0.000001 -4.000000
v -1.499999 0.000001 -4.000001
v 1.500001 1.500000 -3.999999
v -1.500000 1.500000 -4.000000
v 2.000000 0.000000 1.500000
v -2.000000 0.000000 1.499999
v 2.000000 2.000000 1.500002
v -2.000000 2.000000 1.500000
v 1.000001 2.250000 -1.999999
v -1.000000 2.250000 -2.000000
v -1.000000 2.250000 0.500000
v 1.000000 2.250000 0.500002
vt 0.4827 0.3326
vt 0.3719 0.0002
vt 0.4827 0.0371
vt 0.3344 0.4167
vt 0.0002 0.5341
vt 0.0373 0.4167
vt 0.1196 0.8769
vt 0.0153 0.7201
vt 0.1317 0.7297
vt 0.3715 0.7198
vt 0.0002 0.7198
vt 0.4887 0.4068
vt 0.8211 0.5546
vt 0.4887 0.5546
vt 0.8151 0.0371
vt 0.8890 0.2957
vt 0.8151 0.3326
vt 0.9998 0.0740
vt 0.9998 0.2957
vt 0.4631 0.7569
vt 0.5363 0.8741
vt 0.4510 0.9042
vt 0.3342 0.0832
vt 0.0743 0.0002
vt 0.2971 0.0002
vt 0.9037 0.4438
vt 0.9037 0.5546
vt 0.3719 0.5546
vt 0.1125 0.3408
vt 0.2585 0.3414
vt 0.1130 0.1584
vt 0.2590 0.1591
vt 0.0371 0.0832
vt 0.3719 0.3696
vt 0.3715 0.5341
vt 0.0002 0.9042
vt 0.8211 0.4068
vt 0.8890 0.0740
vt 0.5454 0.7637
vt 0.3719 0.3699
vn 0.0000 -1.0000 0.0000
vn 0.0000 0.9487 -0.3162
vn 0.9487 0.0000 -0.3162
vn -0.0000 -0.0000 1.0000
vn -1.0000 -0.0000 -0.0000
vn 0.0000 0.0000 -1.0000
vn 0.8944 -0.0000 -0.4472
vn 0.0000 0.8944 -0.4472
vn -0.8944 -0.0000 -0.4472
vn -0.9487 -0.0000 -0.3162
vn 1.0000 -0.0000 0.0000
vn -0.0000 0.9701 0.2425
vn 0.0000 1.0000 0.0000
vn -0.2425 0.9701 -0.0000
vn 0.2425 0.9701 0.0000
vn 0.0000 0.9701 -0.2425
s off
f 13/1/1 3/2/1 14/3/1
f 16/4/2 6/5/2 15/6/2
f 15/7/3 2/8/3 13/9/3
f 6/5/4 3/10/4 2/11/4
f 16/12/5 4/13/5 14/14/5
f 4/15/1 9/16/1 1/17/1
f 9/16/6 12/18/6 11/19/6
f 1/20/7 11/21/7 5/22/7
f 8/23/8 11/24/8 12/25/8
f 4/13/9 12/26/9 10/27/9
f 3/28/10 16/12/10 14/14/10
f 5/22/11 13/9/11 1/20/11
f 16/4/12 20/29/12 19/30/12
f 1/17/1 14/3/1 4/15/1
f 17/31/13 19/30/13 20/29/13
f 8/23/14 19/30/14 18/32/14
f 15/6/15 17/31/15 20/29/15
f 5/33/16 18/32/16 17/31/16
f 13/1/1 2/34/1 3/2/1
f 16/4/2 7/35/2 6/5/2
f 15/7/3 6/36/3 2/8/3
f 6/5/4 7/35/4 3/10/4
f 16/12/5 8/37/5 4/13/5
f 4/15/1 10/38/1 9/16/1
f 9/16/6 10/38/6 12/18/6
f 1/20/7 9/39/7 11/21/7
f 8/23/8 5/33/8 11/24/8
f 4/13/9 8/37/9 12/26/9
f 3/28/10 7/40/10 16/12/10
f 5/22/11 15/7/11 13/9/11
f 16/4/12 15/6/12 20/29/12
f 1/17/1 13/1/1 14/3/1
f 17/31/13 18/32/13 19/30/13
f 8/23/14 16/4/14 19/30/14
f 15/6/15 5/33/15 17/31/15
f 5/33/16 8/23/16 18/32/16
